<?xml version="1.0" encoding="iso-8859-1"?>
<!-- Generator: Adobe Illustrator 19.0.0, SVG Export Plug-In . SVG Version: 6.00 Build 0)  -->
<svg version="1.1" id="Capa_1" xmlns="http://www.w3.org/2000/svg" xmlns:xlink="http://www.w3.org/1999/xlink" x="0px" y="0px"
	 viewBox="0 0 512 512" style="enable-background:new 0 0 512 512;" xml:space="preserve">
<path style="fill:#6283A3;" d="M512,299.552v-87.104h-44.786c-5.598-27.185-16.339-52.51-31.14-74.93l31.741-31.741l-61.592-61.591
	l-31.741,31.741c-22.42-14.801-47.745-25.542-74.93-31.14V0H256l-20.016,91L256,134.653c66.911,0,121.347,54.436,121.347,121.347
	S322.911,377.347,256,377.347l-20.016,47.04L256,512h43.552v-44.786c27.185-5.597,52.51-16.339,74.93-31.14l31.741,31.741
	l61.592-61.591l-31.741-31.741c14.801-22.42,25.542-47.745,31.14-74.93L512,299.552L512,299.552z"/>
<path style="fill:#9ABADB;" d="M134.653,256c0-66.911,54.436-121.347,121.347-121.347V0h-43.552v44.786
	c-27.185,5.597-52.51,16.339-74.93,31.14l-31.741-31.741l-61.592,61.591l31.741,31.741c-14.801,22.42-25.542,47.745-31.14,74.93H0
	v87.104h44.786c5.598,27.185,16.339,52.51,31.14,74.93l-31.741,31.741l61.592,61.591l31.741-31.741
	c22.42,14.801,47.745,25.542,74.93,31.14V512H256V377.347C189.089,377.347,134.653,322.911,134.653,256z"/>
<path style="fill:#6283A3;" d="M313.613,256c0-31.819-25.794-57.613-57.613-57.613L235.984,256L256,313.613
	C287.819,313.613,313.613,287.819,313.613,256z"/>
<path style="fill:#9ABADB;" d="M198.387,256c0,31.819,25.794,57.613,57.613,57.613V198.387
	C224.181,198.387,198.387,224.181,198.387,256z"/>
<g>
</g>
<g>
</g>
<g>
</g>
<g>
</g>
<g>
</g>
<g>
</g>
<g>
</g>
<g>
</g>
<g>
</g>
<g>
</g>
<g>
</g>
<g>
</g>
<g>
</g>
<g>
</g>
<g>
</g>
</svg>
